<svg id="Grupo_1309" data-name="Grupo 1309" xmlns="http://www.w3.org/2000/svg" viewBox="0 0 23.401 13.503">
  <defs>
    <style>
      .cls-1 {
        fill: #70d6d3;
      }
    </style>
  </defs>
  <path id="Caminho_16" data-name="Caminho 16" class="cls-1" d="M197.2,102.143a3.664,3.664,0,0,1-3.079-1.633,3.975,3.975,0,0,1-.493-4.078,3.6,3.6,0,0,1,1.349-1.593c.269-.177.548-.34.83-.5a.773.773,0,1,1,.773,1.338c-.2.125-.4.239-.606.36a2.207,2.207,0,0,0-1.09,2.449,2.5,2.5,0,0,0,1.779,2.033,2.007,2.007,0,0,0,1.588-.212q3.794-2.23,7.581-4.475a2.269,2.269,0,0,0,.862-2.949,4.534,4.534,0,0,0-.38-.654,2.141,2.141,0,0,0-2.811-.634c-.554.311-1.1.644-1.645.964a.778.778,0,1,1-.786-1.33q.785-.468,1.575-.929a3.721,3.721,0,0,1,5.147,1.352,3.963,3.963,0,0,1,.32,3.839,3.528,3.528,0,0,1-1.443,1.644q-3.83,2.273-7.671,4.528A3.459,3.459,0,0,1,197.2,102.143Z" transform="translate(-185.071 -89.775)"/>
  <path id="Caminho_17" data-name="Caminho 17" class="cls-1" d="M134.864,109.948a12.857,12.857,0,0,1-2.666,1.37,3.538,3.538,0,0,1-3.518-1.012,4.1,4.1,0,0,1-1.256-2.876,3.725,3.725,0,0,1,1.924-3.423q3.077-1.827,6.162-3.641c.45-.266.9-.536,1.352-.793a3.685,3.685,0,0,1,4.864,1.12,3.975,3.975,0,0,1,.411,4.285,4.187,4.187,0,0,1-2.07,1.863l-.761-1.286c.188-.114.363-.222.539-.327a2.526,2.526,0,0,0-.931-4.607,2.176,2.176,0,0,0-1.418.339q-3.475,2.053-6.951,4.1l-.4.239a2.523,2.523,0,0,0,.966,4.6,2.063,2.063,0,0,0,1.3-.286c.55-.318,1.1-.643,1.676-.984Z" transform="translate(-127.424 -97.929)"/>
</svg>
